<svg xmlns="http://www.w3.org/2000/svg" viewBox="0 0 64 64">
  <path d="M13 6C9.1482075 6 6 9.1482075 6 13L6 51C6 54.851793 9.1482075 58 13 58L51 58C54.851793 58 58 54.851793 58 51L58 13C58 9.1482075 54.851793 6 51 6L13 6 z M 13 8L51 8C53.768207 8 56 10.231793 56 13L56 51C56 53.768207 53.768207 56 51 56L13 56C10.231793 56 8 53.768207 8 51L8 13C8 10.231793 10.231793 8 13 8 z M 16 11C14.416667 11 13.101892 11.629756 12.251953 12.585938C11.402014 13.542118 11 14.777778 11 16C11 17.222222 11.402014 18.457881 12.251953 19.414062C13.101892 20.370244 14.416667 21 16 21C17.583333 21 18.898108 20.370244 19.748047 19.414062C20.597986 18.457881 21 17.222222 21 16C21 14.777778 20.597986 13.542119 19.748047 12.585938C18.898108 11.629755 17.583333 11 16 11 z M 16 13C17.083333 13 17.768559 13.370244 18.251953 13.914062C18.735347 14.457882 19 15.222222 19 16C19 16.777778 18.735347 17.542119 18.251953 18.085938C17.768559 18.629756 17.083333 19 16 19C14.916667 19 14.231441 18.629756 13.748047 18.085938C13.264653 17.542119 13 16.777778 13 16C13 15.222222 13.264653 14.457881 13.748047 13.914062C14.231441 13.370245 14.916667 13 16 13 z M 16 14.5 A 1.5 1.5 0 0 0 16 17.5 A 1.5 1.5 0 0 0 16 14.5 z M 25 15 A 1.0001 1.0001 0 1 0 25 17L52 17 A 1.0001 1.0001 0 1 0 52 15L25 15 z M 16 24C14.416667 24 13.101892 24.629756 12.251953 25.585938C11.402014 26.542119 11 27.777778 11 29C11 30.222222 11.402014 31.457882 12.251953 32.414062C13.101892 33.370244 14.416667 34 16 34C17.583333 34 18.898108 33.370244 19.748047 32.414062C20.597986 31.457881 21 30.222222 21 29C21 27.777778 20.597986 26.542118 19.748047 25.585938C18.898108 24.629756 17.583333 24 16 24 z M 16 26C17.083333 26 17.768559 26.370244 18.251953 26.914062C18.735347 27.457881 19 28.222222 19 29C19 29.777778 18.735347 30.542118 18.251953 31.085938C17.768559 31.629756 17.083333 32 16 32C14.916667 32 14.231441 31.629756 13.748047 31.085938C13.264653 30.542119 13 29.777778 13 29C13 28.222222 13.264653 27.457882 13.748047 26.914062C14.231441 26.370244 14.916667 26 16 26 z M 16 27.5 A 1.5 1.5 0 0 0 16 30.5 A 1.5 1.5 0 0 0 16 27.5 z M 25 28 A 1.0001 1.0001 0 1 0 25 30L52 30 A 1.0001 1.0001 0 1 0 52 28L25 28 z M 16 37C14.416667 37 13.101892 37.629756 12.251953 38.585938C11.402014 39.542119 11 40.777778 11 42C11 43.222222 11.402014 44.457881 12.251953 45.414062C13.101892 46.370244 14.416667 47 16 47C17.583333 47 18.898108 46.370245 19.748047 45.414062C20.597986 44.457881 21 43.222222 21 42C21 40.777778 20.597986 39.542119 19.748047 38.585938C18.898108 37.629756 17.583333 37 16 37 z M 16 39C17.083333 39 17.768559 39.370244 18.251953 39.914062C18.735347 40.457881 19 41.222222 19 42C19 42.777778 18.735347 43.542119 18.251953 44.085938C17.768559 44.629756 17.083333 45 16 45C14.916667 45 14.231441 44.629755 13.748047 44.085938C13.264653 43.542119 13 42.777778 13 42C13 41.222222 13.264653 40.457881 13.748047 39.914062C14.231441 39.370244 14.916667 39 16 39 z M 16 40.5 A 1.5 1.5 0 0 0 16 43.5 A 1.5 1.5 0 0 0 16 40.5 z M 25 41 A 1.0001 1.0001 0 1 0 25 43L52 43 A 1.0001 1.0001 0 1 0 52 41L25 41 z M 12 49C11.448 49 11 49.448 11 50L11 52C11 52.552 11.448 53 12 53C12.552 53 13 52.552 13 52L13 50C13 49.448 12.552 49 12 49 z M 17 49C16.448 49 16 49.448 16 50L16 52C16 52.552 16.448 53 17 53C17.552 53 18 52.552 18 52L18 50C18 49.448 17.552 49 17 49 z M 22 49C21.448 49 21 49.448 21 50L21 52C21 52.552 21.448 53 22 53C22.552 53 23 52.552 23 52L23 50C23 49.448 22.552 49 22 49 z M 27 49C26.448 49 26 49.448 26 50L26 52C26 52.552 26.448 53 27 53C27.552 53 28 52.552 28 52L28 50C28 49.448 27.552 49 27 49 z M 32 49C31.448 49 31 49.448 31 50L31 52C31 52.552 31.448 53 32 53C32.552 53 33 52.552 33 52L33 50C33 49.448 32.552 49 32 49 z M 37 49C36.448 49 36 49.448 36 50L36 52C36 52.552 36.448 53 37 53C37.552 53 38 52.552 38 52L38 50C38 49.448 37.552 49 37 49 z M 42 49C41.448 49 41 49.448 41 50L41 52C41 52.552 41.448 53 42 53C42.552 53 43 52.552 43 52L43 50C43 49.448 42.552 49 42 49 z M 47 49C46.448 49 46 49.448 46 50L46 52C46 52.552 46.448 53 47 53C47.552 53 48 52.552 48 52L48 50C48 49.448 47.552 49 47 49 z M 52 49C51.448 49 51 49.448 51 50L51 52C51 52.552 51.448 53 52 53C52.552 53 53 52.552 53 52L53 50C53 49.448 52.552 49 52 49 z" fill="#5B5B5B" />
</svg>